<?xml version="1.0" standalone="no"?>
<svg xmlns="http://www.w3.org/2000/svg" viewBox="0 0 133.32 29.86" width="133.32" height="29.86"><g fill="#ff6506" color="#ff6506" transform="translate(0, 0) scale(0.3020834)"><g transform="translate(1429.059, -150.234)"><svg width="96.0" height="96.0" x="-1429.059" y="150.234" viewBox="-1429.059 150.234 96 96"><path fill="currentColor" d="M-1346.403,220.313c0.652-0.911,0.387-1.818-0.889-3.095c-0.408-0.408-0.942-0.597-1.539-0.521  c-2.756,0.308-7.12,6.505-8.911,9.224l-5.611-8.582c-0.071-0.108-0.168-0.183-0.274-0.24l3.875-1.011  c0.3-0.078,0.521-0.334,0.556-0.643l1.176-10.594c1.863-0.014,2.309-2.232,2.779-4.584c0.106-0.53,0.216-1.08,0.345-1.628  c0.591-2.514-0.731-3.924-1.929-4.532l0.935-8.41c0.026-0.234-0.06-0.468-0.231-0.629c-0.173-0.161-0.412-0.232-0.642-0.193  l-2.362,0.408c-0.019-0.038-0.027-0.079-0.053-0.114c-0.228-0.309-5.616-7.558-9.451-8.718c-0.04-0.012-0.081-0.021-0.122-0.026  c0,0-0.236-0.03-0.655-0.079c0.902-1.801,1.38-3.793,1.38-5.829c0-7.186-5.846-13.032-13.032-13.032s-13.032,5.847-13.032,13.032  c0,1.792,0.358,3.53,1.065,5.165c0.095,0.22,0.201,0.432,0.307,0.645c-0.441,0.063-0.719,0.113-0.769,0.125  c-3.835,1.16-9.224,8.409-9.451,8.718c-0.026,0.035-0.035,0.076-0.053,0.114l-2.361-0.408c-0.23-0.037-0.469,0.032-0.642,0.193  c-0.171,0.161-0.257,0.395-0.231,0.629l0.933,8.396c-1.156,0.581-2.528,1.996-1.928,4.547c0.129,0.548,0.239,1.098,0.345,1.628  c0.47,2.352,0.916,4.57,2.779,4.584l1.176,10.594c0.035,0.309,0.256,0.564,0.556,0.643l3.875,1.011  c-0.106,0.058-0.204,0.132-0.274,0.24l-5.611,8.582c-1.791-2.719-6.155-8.916-8.911-9.224c-0.599-0.075-1.131,0.113-1.539,0.521  c-1.276,1.276-1.542,2.184-0.889,3.095c-1.436,1.245-2.978,4.99-1.207,7.426c3.75,5.155,8.932,11.246,12.478,11.246  c0.055,0,0.11-0.002,0.165-0.005c0.7-0.038,1.683-0.344,2.388-1.578c1.903-3.33,2.314-4.611,2.25-5.251l9.743-12.812l8.65,2.257  c0.063,0.017,0.126,0.024,0.189,0.024c0.063,0,0.127-0.008,0.189-0.024l8.65-2.257l9.743,12.812  c-0.063,0.639,0.348,1.921,2.251,5.251c0.706,1.234,1.688,1.54,2.388,1.578c0.054,0.003,0.109,0.004,0.165,0.004  c3.545,0,8.727-6.09,12.477-11.245C-1343.424,225.304-1344.967,221.558-1346.403,220.313z M-1356.356,198.296  c-0.133,0.564-0.247,1.132-0.355,1.678c-0.317,1.585-0.676,3.381-1.325,3.381c-0.103,0-0.229-0.027-0.375-0.083  c-0.312-0.117-0.667-0.244-1.039-0.377c-0.581-0.207-1.441-0.519-2.127-0.81l0.927,0.025c0.007,0,0.014,0,0.021,0  c0.405,0,0.738-0.322,0.749-0.729c0.011-0.414-0.315-0.759-0.729-0.771l-1.527-0.041c-0.24-0.119-0.469-0.253-0.675-0.389  l2.053,0.358c0.043,0.007,0.087,0.011,0.13,0.011c0.357,0,0.674-0.257,0.738-0.621c0.071-0.408-0.202-0.797-0.61-0.868l-2.23-0.39  c-0.123-0.341-0.208-0.685-0.227-0.909l2.395,0.692c0.07,0.02,0.14,0.029,0.209,0.029c0.325,0,0.625-0.213,0.72-0.542  c0.115-0.397-0.114-0.813-0.512-0.929l-2.12-0.613c0.015-0.166,0.06-0.359,0.199-0.539c0.353-0.457,1.204-0.709,2.396-0.709  c0.564,0,1.213,0.056,1.836,0.144C-1357.626,195.354-1355.803,195.941-1356.356,198.296z M-1381.059,158.984  c6.359,0,11.532,5.173,11.532,11.532c0,2.147-0.593,4.241-1.714,6.055c-2.122,3.431-5.792,5.479-9.818,5.479  c-4.606,0-8.763-2.733-10.59-6.964c-0.625-1.445-0.942-2.982-0.942-4.569C-1392.591,164.157-1387.418,158.984-1381.059,158.984z   M-1403.707,203.271c-0.146,0.056-0.271,0.083-0.375,0.083c-0.649,0-1.008-1.796-1.325-3.381c-0.109-0.546-0.223-1.113-0.355-1.678  c-0.546-2.323,1.275-2.939,1.388-2.981c0.714-0.107,1.363-0.163,1.927-0.163c1.191,0,2.042,0.252,2.396,0.708  c0.139,0.181,0.185,0.375,0.199,0.54l-2.12,0.613c-0.398,0.115-0.627,0.531-0.512,0.929c0.095,0.329,0.395,0.542,0.72,0.542  c0.069,0,0.139-0.01,0.209-0.029l2.395-0.692c-0.019,0.226-0.103,0.568-0.227,0.909l-2.23,0.39c-0.408,0.071-0.681,0.46-0.61,0.868  c0.063,0.364,0.38,0.621,0.738,0.621c0.043,0,0.086-0.004,0.13-0.011l2.054-0.358c-0.204,0.135-0.434,0.268-0.676,0.389  l-1.527,0.041c-0.414,0.012-0.741,0.356-0.729,0.771c0.011,0.407,0.344,0.729,0.749,0.729c0.007,0,0.014,0,0.021,0l0.925-0.025  c-0.686,0.292-1.545,0.603-2.125,0.81C-1403.04,203.027-1403.395,203.154-1403.707,203.271z M-1401.121,231.618  c-0.187,0.246-0.204,0.582-0.042,0.846c-0.085,0.364-0.453,1.432-2.032,4.194c-0.402,0.703-0.859,0.808-1.167,0.824  c-2.201,0.134-6.419-3.854-11.347-10.626c-1.184-1.628-0.055-4.526,0.984-5.416c1.083-0.929,0.469-1.699,0.267-1.952  c-0.037-0.047-0.093-0.117-0.101-0.129c0-0.003,0.008-0.294,0.794-1.08c0.07-0.069,0.145-0.108,0.312-0.092  c1.912,0.214,6.191,5.947,8.439,9.511c0.136,0.216,0.373,0.348,0.628,0.35c0.002,0,0.004,0,0.006,0c0.253,0,0.489-0.128,0.628-0.34  l6.243-9.549c0.164-0.251,0.154-0.563,0.006-0.803l6.031,1.573L-1401.121,231.618z M-1381.809,219.9l-8.198-2.139  c-0.001,0-0.002,0-0.002-0.001l-11.479-2.994l-1.143-10.292c0.152-0.055,0.307-0.11,0.468-0.168c2.723-0.974,4.141-1.53,4.062-2.572  c-0.013-0.173-0.066-0.319-0.146-0.444c0.575-0.423,0.998-0.938,0.936-1.519c-0.038-0.358-0.229-0.646-0.569-0.856  c0.217-0.674,0.369-1.547-0.007-2.133c-0.117-0.182-0.272-0.322-0.457-0.419c-0.021-0.407-0.139-0.913-0.498-1.392  c-0.657-0.876-1.87-1.32-3.604-1.32c-0.415,0-0.872,0.028-1.378,0.085l-0.802-7.213l22.817,3.946V219.9z M-1381.059,189.076  l-20.299-3.51c1.738-2.258,5.712-6.896,8.223-7.659c0.012-0.003,0.468-0.082,1.232-0.175c2.388,3.591,6.431,5.817,10.844,5.817  c4.385,0,8.38-2.164,10.81-5.79c0.644,0.071,1.086,0.125,1.242,0.145c2.585,0.833,6.521,5.42,8.248,7.662L-1381.059,189.076z   M-1372.112,217.762l-8.197,2.139V190.47l22.817-3.946l-0.802,7.214c-2.492-0.266-4.166,0.146-4.982,1.234  c-0.359,0.479-0.477,0.984-0.498,1.392c-0.185,0.097-0.34,0.237-0.457,0.419c-0.376,0.586-0.225,1.458-0.008,2.132  c-0.34,0.212-0.531,0.499-0.569,0.857c-0.062,0.581,0.361,1.096,0.936,1.519c-0.08,0.125-0.133,0.271-0.146,0.444  c-0.08,1.042,1.338,1.599,4.062,2.572c0.161,0.058,0.316,0.113,0.468,0.168l-1.143,10.292l-11.478,2.994  C-1372.11,217.762-1372.111,217.762-1372.112,217.762z M-1346.409,226.856c-4.928,6.773-9.176,10.787-11.347,10.626  c-0.309-0.017-0.766-0.121-1.167-0.824c-1.579-2.763-1.947-3.829-2.032-4.193c0.162-0.264,0.145-0.601-0.042-0.847l-9.649-12.688  l6.031-1.573c-0.148,0.239-0.158,0.552,0.006,0.803l6.243,9.549c0.139,0.212,0.375,0.34,0.628,0.34c0.002,0,0.004,0,0.006,0  c0.255-0.002,0.492-0.134,0.628-0.35c2.248-3.563,6.526-9.297,8.439-9.511c0.168-0.017,0.242,0.022,0.312,0.092  c0.771,0.771,0.793,1.066,0.796,1.066c-0.011,0.026-0.066,0.096-0.103,0.143c-0.202,0.253-0.816,1.023,0.267,1.952  C-1346.354,222.33-1345.225,225.229-1346.409,226.856z"></path></svg></g></g><line x1="41" y1="1" x2="41" y2="28" stroke="#00005f" stroke-linecap="round"></line><path fill="#00005f" fill-rule="nonzero" d="M0 19.37Q0.31 17.62 0.86 15.55Q1.42 13.49 2.64 9.74L2.64 9.74L1.06 9.91Q1.08 8.86 3.05 8.45L3.05 8.45Q3.94 5.74 5.09 2.42L5.09 2.42Q5.11 2.35 5.27 1.90Q5.42 1.44 5.42 1.01L5.42 1.01Q5.42 0.82 5.36 0.74Q5.30 0.67 5.09 0.67L5.09 0.67Q4.34 0.67 3.66 1.44Q2.98 2.21 2.54 3.29Q2.11 4.37 2.11 5.18L2.11 5.18Q2.11 5.64 2.23 6.00L2.23 6.00Q1.49 6.00 1.14 5.63Q0.79 5.26 0.79 4.63L0.79 4.63Q0.79 3.60 1.60 2.51Q2.40 1.42 3.55 0.71Q4.70 0 5.59 0L5.59 0Q6.19 0 6.44 0.32Q6.70 0.65 6.70 1.15L6.70 1.15Q6.70 1.56 6.50 2.18L6.50 2.18L4.63 8.28Q5.50 8.23 6.02 8.23L6.02 8.23Q7.90 8.23 10.10 8.45L10.10 8.45Q10.85 5.98 11.53 3.94Q12.22 1.90 12.53 1.25L12.53 1.25Q13.10 0 13.85 0L13.85 0Q13.37 1.27 12.68 3.62Q12 5.98 11.33 8.54L11.33 8.54Q11.57 8.54 12.10 8.59L12.10 8.59Q12.82 8.64 13.13 8.64L13.13 8.64Q12.65 9.14 12.19 9.28Q11.74 9.41 11.11 9.41L11.11 9.41Q10.61 11.47 10.37 12.70L10.37 12.70Q9.58 16.46 9.58 18.50L9.58 18.50Q9.58 18.94 9.62 19.37L9.62 19.37Q8.71 19.27 8.34 18.85Q7.97 18.43 7.97 17.50L7.97 17.50Q7.97 16.10 8.54 13.87L8.54 13.87Q8.93 12.29 9.82 9.43L9.82 9.43Q7.90 9.43 6.56 9.47Q5.23 9.50 4.22 9.60L4.22 9.60Q2.16 16.10 1.66 17.83L1.66 17.83Q1.42 18.60 0.94 18.98Q0.46 19.37 0 19.37L0 19.37ZM14.06 18.41Q13.27 18.41 12.78 17.89Q12.29 17.38 12.29 16.42L12.29 16.42Q12.29 15 13.31 13.25Q14.33 11.50 15.89 10.27Q17.45 9.05 18.94 9.05L18.94 9.05Q19.87 9.05 20.50 9.55Q21.12 10.06 21.12 10.85L21.12 10.85Q21.12 11.40 20.81 11.64Q20.50 11.88 19.94 11.88L19.94 11.88Q20.06 11.45 20.06 11.04L20.06 11.04Q20.06 10.44 19.78 10.07Q19.49 9.70 18.89 9.70L18.89 9.70Q17.83 9.70 16.67 10.87Q15.50 12.05 14.72 13.68Q13.94 15.31 13.94 16.49L13.94 16.49Q13.94 17.42 14.59 17.42L14.59 17.42Q15.55 17.42 16.85 15.90Q18.14 14.38 19.63 12.19L19.63 12.19Q19.94 12.24 20.27 12.40Q20.59 12.55 20.59 12.79L20.59 12.79Q20.59 12.98 20.36 13.40Q20.14 13.82 20.09 13.90L20.09 13.90Q19.68 14.59 19.44 15.13Q19.20 15.67 19.20 16.13L19.20 16.13Q19.20 16.54 19.40 16.86Q19.61 17.18 20.02 17.18L20.02 17.18Q20.71 17.18 21.77 16.19Q22.82 15.19 23.86 13.39L23.86 13.39L24.10 13.63Q23.59 14.90 22.80 15.90Q22.01 16.90 21.10 17.45Q20.18 18 19.34 18L19.34 18Q18.50 18 18.06 17.51Q17.62 17.02 17.62 16.32L17.62 16.32Q17.62 16.01 17.69 15.62L17.69 15.62Q16.61 17.06 15.76 17.74Q14.90 18.41 14.06 18.41L14.06 18.41ZM21.86 24Q21.67 24 21.50 23.81Q21.34 23.62 21.22 23.38Q21.10 23.14 21.12 23.09L21.12 23.09Q21.46 21.94 21.94 20.54L21.94 20.54Q22.46 19.01 22.82 17.74Q23.18 16.46 23.58 14.29Q23.98 12.12 24.38 8.74L24.38 8.74Q24.41 8.50 24.49 8.41Q24.58 8.33 24.84 8.33L24.84 8.33Q25.42 8.33 25.70 8.65Q25.99 8.98 25.99 9.43L25.99 9.43Q25.99 10.10 25.44 12.67L25.44 12.67Q26.18 11.23 27.25 10.19Q28.32 9.14 29.59 9.14L29.59 9.14Q30.65 9.14 31.33 9.90Q32.02 10.66 32.02 11.88L32.02 11.88Q32.02 13.15 31.27 14.58Q30.53 16.01 29.22 16.96Q27.91 17.90 26.35 17.90L26.35 17.90Q25.75 17.90 25.36 17.77Q24.96 17.64 24.96 17.47L24.96 17.47Q24.96 17.40 25.14 17.38Q25.32 17.35 25.56 17.35L25.56 17.35Q26.81 17.35 27.94 16.56Q29.06 15.77 29.76 14.54Q30.46 13.32 30.46 12.10L30.46 12.10Q30.46 11.28 30.11 10.76Q29.76 10.25 29.09 10.25L29.09 10.25Q28.32 10.25 27.52 10.88Q26.71 11.52 26.08 12.42Q25.44 13.32 25.10 14.11L25.10 14.11Q24.22 17.90 23.39 20.70Q22.56 23.50 22.15 23.88L22.15 23.88Q22.03 24 21.86 24L21.86 24ZM33.86 19.37Q34.27 17.86 35.64 13.37L35.64 13.37Q37.10 8.64 38.95 2.42L38.95 2.42Q39.12 1.82 39.12 1.44L39.12 1.44Q39.12 0.89 38.76 0.89L38.76 0.89Q38.02 0.89 37.38 1.61Q36.74 2.33 36.36 3.34Q35.98 4.34 35.98 5.16L35.98 5.16Q35.98 5.64 36.10 6.00L36.10 6.00Q35.35 6.00 35.00 5.63Q34.66 5.26 34.66 4.63L34.66 4.63Q34.66 3.60 35.46 2.51Q36.26 1.42 37.40 0.71Q38.54 0 39.46 0L39.46 0Q40.34 0 40.88 1.00Q41.42 1.99 41.69 3.49Q41.95 4.99 42.24 7.49L42.24 7.49Q42.74 11.98 43.30 15.55L43.30 15.55Q43.61 13.51 44.41 10.39Q45.22 7.27 46.07 4.50Q46.92 1.73 47.16 1.18L47.16 1.18Q47.33 0.79 47.76 0.40Q48.19 0 48.67 0L48.67 0Q47.81 2.28 46.68 6.24Q45.55 10.20 44.74 13.91Q43.92 17.62 43.90 19.37L43.90 19.37Q43.13 19.37 42.67 18.92Q42.22 18.48 42.02 17.42L42.02 17.42Q41.71 15.74 41.00 11.03Q40.30 6.31 39.84 3.14L39.84 3.14Q37.61 11.18 36.72 14.11Q35.83 17.04 35.22 18.20Q34.61 19.37 33.86 19.37L33.86 19.37ZM49.13 18.05Q48.14 18.05 47.69 17.45Q47.23 16.85 47.23 15.86L47.23 15.86Q47.23 14.88 47.64 13.80Q48.05 12.72 48.70 12Q49.34 11.28 49.99 11.28L49.99 11.28Q50.21 11.28 50.50 11.40L50.50 11.40Q50.21 11.64 49.80 12.46Q49.39 13.27 49.09 14.20Q48.79 15.12 48.79 15.70L48.79 15.70Q48.79 17.06 49.66 17.06L49.66 17.06Q50.16 17.06 50.86 16.54Q51.55 16.01 52.22 15.14L52.22 15.14Q51.55 14.59 51.18 13.70Q50.81 12.82 50.81 11.86L50.81 11.86Q50.81 10.61 51.44 9.72Q52.08 8.83 53.16 8.83L53.16 8.83Q54.07 8.83 54.44 9.32Q54.82 9.82 54.82 10.68L54.82 10.68Q54.82 11.59 54.37 12.73Q53.93 13.87 53.21 14.95L53.21 14.95Q53.64 15.19 54.12 15.19L54.12 15.19Q54.82 15.19 55.56 14.77Q56.30 14.35 56.69 13.46L56.69 13.46L56.98 13.70Q56.52 14.76 55.68 15.26Q54.84 15.77 53.95 15.77L53.95 15.77Q53.30 15.77 52.80 15.53L52.80 15.53Q51.94 16.66 50.96 17.35Q49.99 18.05 49.13 18.05L49.13 18.05ZM52.66 14.52Q53.28 13.58 53.66 12.61Q54.05 11.64 54.05 10.82L54.05 10.82Q54.05 10.15 53.84 9.82Q53.64 9.48 53.33 9.48L53.33 9.48Q52.99 9.48 52.64 9.80Q52.30 10.13 52.07 10.69Q51.84 11.26 51.84 11.93L51.84 11.93Q51.84 12.67 52.04 13.36Q52.25 14.04 52.66 14.52L52.66 14.52ZM57.79 18.22Q57.07 18.22 56.77 17.53Q56.47 16.85 56.47 15.58L56.47 15.58Q56.47 15.12 56.62 12.43L56.62 12.43Q56.66 11.71 56.78 11.51Q56.90 11.30 57.38 11.30L57.38 11.30Q57.79 11.30 57.90 11.46Q58.01 11.62 58.01 12.07L58.01 12.07Q58.01 12.55 57.91 13.85L57.91 13.85Q57.79 15 57.79 15.94L57.79 15.94Q57.79 16.66 57.91 16.97Q58.03 17.28 58.34 17.28L58.34 17.28Q59.14 17.28 60.26 15.66Q61.39 14.04 62.30 12.02L62.30 12.02Q62.35 10.51 62.63 9.91Q62.90 9.31 63.41 9.31L63.41 9.31Q63.82 9.31 64.04 9.61Q64.27 9.91 64.27 10.22L64.27 10.22Q64.27 10.46 64.03 10.90L64.03 10.90Q63.74 11.45 63.59 11.99Q63.43 12.53 63.43 13.44L63.43 13.44Q63.43 14.23 63.66 14.75Q63.89 15.26 64.56 15.26L64.56 15.26Q65.09 15.26 65.54 14.86Q66 14.45 66.46 13.49L66.46 13.49L66.77 13.73Q65.90 15.74 64.39 15.74L64.39 15.74Q63.58 15.74 63.06 15.16Q62.54 14.57 62.38 13.42L62.38 13.42Q61.39 15.38 60.13 16.80Q58.87 18.22 57.79 18.22L57.79 18.22ZM68.59 18.34Q67.18 18.34 66.42 17.56Q65.66 16.78 65.66 15.55L65.66 15.55Q65.66 14.14 66.60 12.50Q67.54 10.87 68.96 9.76Q70.39 8.64 71.76 8.64L71.76 8.64Q73.25 8.64 73.25 10.10L73.25 10.10Q73.25 11.28 72.36 12.30Q71.47 13.32 70.08 13.97Q68.69 14.62 67.30 14.76L67.30 14.76Q67.20 15.17 67.20 15.62L67.20 15.62Q67.20 16.49 67.63 17.06Q68.06 17.64 69.10 17.64L69.10 17.64Q70.56 17.64 72.05 16.42Q73.54 15.19 74.47 13.39L74.47 13.39L74.76 13.61Q73.80 15.74 72.10 17.04Q70.39 18.34 68.59 18.34L68.59 18.34ZM67.42 14.30Q68.42 13.94 69.53 13.30Q70.63 12.65 71.41 11.77Q72.19 10.90 72.19 9.94L72.19 9.94Q72.19 9.65 72.08 9.52Q71.98 9.38 71.69 9.38L71.69 9.38Q70.94 9.38 70.07 10.13Q69.19 10.87 68.46 12.02Q67.73 13.18 67.42 14.30L67.42 14.30ZM75.98 18Q75 18 74.53 17.33Q74.06 16.66 74.06 15.53L74.06 15.53Q74.06 13.37 75.55 9.66Q77.04 5.95 78.88 2.98Q80.71 0 81.53 0L81.53 0Q81.86 0 82.09 0.59Q82.32 1.18 82.32 1.78L82.32 1.78Q82.32 2.88 81.42 5.03Q80.52 7.18 79.06 9.38Q77.59 11.59 75.94 12.96L75.94 12.96Q75.62 14.35 75.62 15.38L75.62 15.38Q75.62 17.23 76.68 17.23L76.68 17.23Q77.57 17.23 78.49 16.10Q79.42 14.98 80.14 13.39L80.14 13.39L80.50 13.58Q78.43 18 75.98 18L75.98 18ZM76.15 12.14Q77.47 10.82 78.73 8.82Q79.99 6.82 80.78 4.98Q81.58 3.14 81.58 2.33L81.58 2.33Q81.58 1.94 81.41 1.94L81.41 1.94Q81.07 1.94 80.03 3.59Q78.98 5.23 77.88 7.61Q76.78 9.98 76.15 12.14L76.15 12.14Z" transform="translate(51, 5.86)"></path></svg>